<?xml version="1.0" encoding="UTF-8"?>
<svg id="Layer_1" data-name="Layer 1" xmlns="http://www.w3.org/2000/svg" version="1.1" viewBox="0 0 52 84">
  <defs>
    <style>
      .cls-1 {
        stroke: #fff;
        stroke-width: 2px;
      }

      .cls-1, .cls-2, .cls-3 {
        stroke-miterlimit: 10;
      }

      .cls-1, .cls-3 {
        fill: none;
      }

      .cls-2 {
        fill: #e693be;
        stroke: #1b1e43;
        stroke-width: .8px;
      }

      .cls-3 {
        stroke: #000;
      }

      .cls-4 {
        fill: #fff;
        stroke-width: 0px;
      }
    </style>
  </defs>
  <g id="Layer_1-2" data-name="Layer 1">
    <path class="cls-3" d="M6.5,44.5"/>
    <path class="cls-2" d="M51,26c0-13.8-11.2-25-25-25S1,12.2,1,26s4.7,16.8,11.7,21.2l13.3,35.8,13.3-35.8c7-4.4,11.7-12.2,11.7-21.2Z"/>
    <path class="cls-3" d="M25.5,52"/>
  </g>
  <g id="Layer_3" data-name="Layer 3">
    <path class="cls-1" d="M19.7,34.6c-.5.6-2.1,2.3-4.4,2.4-2.7.1-4.5-1.8-5-2.4"/>
    <line class="cls-1" x1="39.5" y1="29.8" x2="36.9" y2="41.8"/>
    <path class="cls-1" d="M19.5,34.8c.5-.6,2.1-2.3,4.4-2.4,2.7-.1,4.5,1.9,5,2.4"/>
    <path class="cls-1" d="M38.2,34.8c-.5.6-2.1,2.3-4.4,2.4-2.7.1-4.5-1.8-5-2.4"/>
    <ellipse class="cls-4" cx="24.2" cy="25.8" rx="3" ry="3.1"/>
    <polygon class="cls-4" points="27.8 8.4 20.5 8.4 21.9 22 26.5 22 27.8 8.4"/>
  </g>
</svg>