<?xml version="1.0" encoding="UTF-8"?>
<svg id="Layer_1" data-name="Layer 1" xmlns="http://www.w3.org/2000/svg" version="1.1" viewBox="0 0 52 84">
  <defs>
    <style>
      .cls-1 {
        stroke-width: 2px;
      }

      .cls-1, .cls-2, .cls-3, .cls-4 {
        stroke-miterlimit: 10;
      }

      .cls-1, .cls-3 {
        stroke: #fff;
      }

      .cls-1, .cls-3, .cls-4 {
        fill: none;
      }

      .cls-2 {
        fill: #e693be;
        stroke: #1b1e43;
        stroke-width: .8px;
      }

      .cls-3 {
        stroke-width: 6px;
      }

      .cls-4 {
        stroke: #000;
      }
    </style>
  </defs>
  <g id="Layer_1-2" data-name="Layer 1">
    <path class="cls-4" d="M8.5,26.2"/>
    <path class="cls-2" d="M51,26c0-13.8-11.2-25-25-25S1,12.2,1,26s4.7,16.8,11.7,21.2l13.3,35.8,13.3-35.8c7-4.4,11.7-12.2,11.7-21.2Z"/>
  </g>
  <g id="Layer_4" data-name="Layer 4">
    <path class="cls-1" d="M21.7,32.6c-.5.6-2.1,2.2-4.4,2.4-2.7.1-4.5-1.8-5-2.4"/>
    <line class="cls-1" x1="41.5" y1="27.9" x2="38.9" y2="39.7"/>
    <path class="cls-1" d="M21.5,32.8c.5-.6,2.1-2.2,4.4-2.4,2.7-.1,4.5,1.8,5,2.4"/>
    <path class="cls-1" d="M40.3,32.8c-.5.6-2.1,2.2-4.4,2.3-2.7.1-4.5-1.8-5-2.4"/>
    <line class="cls-3" x1="21.7" y1="10.3" x2="21.7" y2="25.7"/>
    <line class="cls-3" x1="30.3" y1="10.3" x2="30.3" y2="25.7"/>
  </g>
</svg>