<?xml version="1.0" encoding="utf-8"?>
<!-- Generator: Adobe Illustrator 26.1.0, SVG Export Plug-In . SVG Version: 6.00 Build 0)  -->
<svg version="1.1" xmlns="http://www.w3.org/2000/svg" xmlns:xlink="http://www.w3.org/1999/xlink" x="0px" y="0px"
	 viewBox="0 0 50 82" style="enable-background:new 0 0 50 82;" xml:space="preserve">
<style type="text/css">
	.st0{fill:none;stroke:#000000;stroke-miterlimit:10;}
	.st1{fill:#E693BE;stroke:#1B1E43;stroke-width:0.75;stroke-miterlimit:10;}
	.st2{fill:none;stroke:#FFFFFF;stroke-width:2;stroke-miterlimit:10;}
	.st3{fill:none;stroke:#FFFFFF;stroke-width:6;stroke-miterlimit:10;}
</style>
<g id="Layer_1">
	<path class="st0" d="M7.5,25.24"/>
	<path class="st1" d="M50,25C50,11.19,38.81,0,25,0S0,11.19,0,25c0,8.92,4.68,16.75,11.71,21.17L25,82l13.29-35.83
		C45.32,41.75,50,33.92,50,25z"/>
</g>
<g id="Layer_4">
	<path class="st2" d="M20.68,31.63c-0.51,0.58-2.09,2.23-4.42,2.35c-2.67,0.14-4.51-1.82-4.98-2.35"/>
	<line class="st2" x1="40.5" y1="26.94" x2="37.92" y2="38.69"/>
	<path class="st2" d="M20.49,31.83c0.51-0.58,2.09-2.23,4.42-2.35c2.67-0.14,4.51,1.82,4.98,2.35"/>
	<path class="st2" d="M39.29,31.82c-0.51,0.58-2.09,2.23-4.42,2.35c-2.67,0.14-4.51-1.82-4.98-2.35"/>
	<line class="st3" x1="20.66" y1="9.31" x2="20.66" y2="24.67"/>
	<line class="st3" x1="29.34" y1="9.31" x2="29.34" y2="24.67"/>
</g>
</svg>
