<?xml version="1.0" encoding="UTF-8"?>
<svg id="Layer_1" data-name="Layer 1" xmlns="http://www.w3.org/2000/svg" version="1.1" viewBox="0 0 52 84">
  <defs>
    <style>
      .cls-1, .cls-2, .cls-3 {
        stroke: #fff;
      }

      .cls-1, .cls-2, .cls-3, .cls-4, .cls-5 {
        stroke-miterlimit: 10;
      }

      .cls-1, .cls-3 {
        stroke-width: 4px;
      }

      .cls-1, .cls-6 {
        fill: #fff;
      }

      .cls-2 {
        stroke-width: 2px;
      }

      .cls-2, .cls-3, .cls-5 {
        fill: none;
      }

      .cls-4 {
        fill: #e693be;
        stroke: #1b1e43;
        stroke-width: .8px;
      }

      .cls-5 {
        stroke: #000;
      }

      .cls-6 {
        stroke-width: 0px;
      }
    </style>
  </defs>
  <path class="cls-5" d="M6.5,44.5"/>
  <path class="cls-4" d="M51,26c0-13.8-11.2-25-25-25S1,12.2,1,26s4.7,16.8,11.7,21.2l13.3,35.8,13.3-35.8c7-4.4,11.7-12.2,11.7-21.2Z"/>
  <path class="cls-5" d="M25.5,52"/>
  <g>
    <polygon class="cls-6" points="34.8 9.2 40.7 12.6 34.8 16.1 34.8 9.2"/>
    <path class="cls-6" d="M35.3,10.1l4.5,2.6-4.5,2.6v-5.1M34.3,8.3v8.6l7.5-4.3-7.5-4.3h0Z"/>
  </g>
  <line class="cls-3" x1="24" y1="23" x2="24" y2="16.1"/>
  <line class="cls-3" x1="35.3" y1="12.4" x2="27.7" y2="12.4"/>
  <path class="cls-1" d="M24,16.4c0-2.6,1.3-4,4-4"/>
  <path class="cls-2" d="M19.7,34.6c-.5.6-2.1,2.2-4.4,2.3-2.7.1-4.5-1.8-5-2.3"/>
  <line class="cls-2" x1="39.5" y1="29.9" x2="36.9" y2="41.7"/>
  <path class="cls-2" d="M19.5,34.8c.5-.6,2.1-2.2,4.4-2.4,2.7-.1,4.5,1.8,5,2.4"/>
  <path class="cls-2" d="M38.3,34.8c-.5.6-2.1,2.2-4.4,2.3-2.7.1-4.5-1.8-5-2.3"/>
</svg>