<?xml version="1.0" encoding="utf-8"?>
<!-- Generator: Adobe Illustrator 26.1.0, SVG Export Plug-In . SVG Version: 6.00 Build 0)  -->
<svg version="1.1" id="Layer_1" xmlns="http://www.w3.org/2000/svg" xmlns:xlink="http://www.w3.org/1999/xlink" x="0px" y="0px"
	 viewBox="0 0 50 82" style="enable-background:new 0 0 50 82;" xml:space="preserve">
<style type="text/css">
	.st0{fill:none;stroke:#000000;stroke-miterlimit:10;}
	.st1{fill:#CB3CF6;stroke:#1B1E43;stroke-width:0.75;stroke-miterlimit:10;}
	.st2{fill:#FFFFFF;}
	.st3{fill:#FFFFFF;stroke:#FFFFFF;stroke-width:4;stroke-miterlimit:10;}
	.st4{fill:none;stroke:#FFFFFF;stroke-width:2;stroke-miterlimit:10;}
	.st5{fill:#FFFFFF;stroke:#FFFFFF;stroke-width:2;stroke-miterlimit:10;}
</style>
<path class="st0" d="M5.5,43.5"/>
<path class="st1" d="M50,25C50,11.19,38.81,0,25,0S0,11.19,0,25c0,8.92,4.68,16.75,11.71,21.17L25,82l13.29-35.83
	C45.32,41.75,50,33.92,50,25z"/>
<path class="st0" d="M24.5,51"/>
<g>
	<polygon class="st2" points="19.54,22.38 26.42,22.38 22.98,28.34 	"/>
	<path class="st2" d="M25.56,22.88l-2.57,4.46l-2.57-4.46H25.56 M27.29,21.88h-8.61l4.3,7.46L27.29,21.88L27.29,21.88z"/>
</g>
<g>
	<polygon class="st2" points="33.76,8.19 39.71,11.62 33.76,15.06 	"/>
	<path class="st2" d="M34.26,9.05l4.46,2.57l-4.46,2.57V9.05 M33.26,7.32v8.61l7.46-4.3L33.26,7.32L33.26,7.32z"/>
</g>
<line class="st3" x1="22.98" y1="21.97" x2="22.98" y2="15.35"/>
<line class="st3" x1="33.58" y1="11.37" x2="26.96" y2="11.37"/>
<path class="st3" d="M22.98,15.35c0-2.65,1.32-3.97,3.97-3.97"/>
<path class="st4" d="M18.68,33.63c-0.51,0.58-2.09,2.23-4.42,2.35c-2.67,0.14-4.5-1.81-4.97-2.35"/>
<line class="st5" x1="38.48" y1="28.94" x2="35.9" y2="40.68"/>
<path class="st4" d="M18.48,33.83c0.51-0.58,2.09-2.23,4.42-2.35c2.67-0.14,4.5,1.81,4.97,2.35"/>
<path class="st4" d="M37.27,33.82c-0.51,0.58-2.09,2.23-4.42,2.35c-2.67,0.14-4.5-1.81-4.97-2.35"/>
</svg>
