<?xml version="1.0" encoding="UTF-8" standalone="no"?>
<!DOCTYPE svg PUBLIC "-//W3C//DTD SVG 1.1//EN" "http://www.w3.org/Graphics/SVG/1.1/DTD/svg11.dtd">
<!-- Created with Vectornator (http://vectornator.io/) -->
<svg height="500.0pt" stroke-miterlimit="10" style="fill-rule:nonzero;clip-rule:evenodd;stroke-linecap:round;stroke-linejoin:round;" version="1.1" viewBox="0 0 500 500" width="500.0pt" xml:space="preserve" xmlns="http://www.w3.org/2000/svg" xmlns:xlink="http://www.w3.org/1999/xlink">
<defs/>
<g id="Layer-2">
<path d="M25.1175 473.85C25.1175 473.85 48.9602 417.486 93.7525 350.946C138.545 284.406 143.533 268.943 204.287 207.69C265.041 146.437 270.128 150.029 336.768 105.935C403.408 61.8409 470.846 31.3143 470.846 31.3143C470.846 31.3143 443.112 95.1607 399.018 161.8C354.924 228.44 357.219 237.319 294.47 297.873C231.721 358.428 215.36 360.024 148.022 404.018C80.6839 448.012 25.1175 473.85 25.1175 473.85Z" fill="none" opacity="1" stroke="#1b1e43" stroke-linecap="round" stroke-linejoin="round" stroke-width="25"/>
<path d="M142.435 284.705L217.854 358.128" fill="none" opacity="1" stroke="#1b1e43" stroke-linecap="butt" stroke-linejoin="round" stroke-width="25"/>
<path d="M390.638 161.002L342.754 112.319" fill="none" opacity="1" stroke="#1b1e43" stroke-linecap="butt" stroke-linejoin="round" stroke-width="25"/>
<path d="M213.864 208.887L294.869 291.089" fill="none" opacity="1" stroke="#1b1e43" stroke-linecap="butt" stroke-linejoin="round" stroke-width="25"/>
</g>
</svg>
