<?xml version="1.0" encoding="UTF-8"?>
<svg id="Layer_1" data-name="Layer 1" xmlns="http://www.w3.org/2000/svg" version="1.1" viewBox="0 0 50 50">
  <defs>
    <style>
      .cls-1 {
        stroke-width: 2px;
      }

      .cls-1, .cls-2 {
        fill: none;
        stroke: #1b1e43;
        stroke-miterlimit: 10;
      }

      .cls-2 {
        stroke-width: 4px;
      }

      .cls-3 {
        fill: #1b1e43;
        stroke-width: 0px;
      }
    </style>
  </defs>
  <polygon class="cls-3" points="22.7 33 29.2 21.8 16.3 21.8 22.7 33"/>
  <line class="cls-2" x1="22.7" y1="22.5" x2="22.7" y2="11.8"/>
  <line class="cls-2" x1="38.6" y1="6.1" x2="28.4" y2="6.1"/>
  <path class="cls-2" d="M22.7,12c0-4,2-5.9,6-5.9"/>
  <path class="cls-1" d="M16.3,39.4c-.8.9-3.1,3.3-6.6,3.5-4,.2-6.8-2.7-7.4-3.5"/>
  <line class="cls-1" x1="46" y1="32.4" x2="42.1" y2="50"/>
  <path class="cls-1" d="M16,39.7c.8-.9,3.1-3.3,6.6-3.5,4-.2,6.8,2.7,7.5,3.5"/>
  <path class="cls-1" d="M44.1,39.7c-.8.9-3.1,3.3-6.6,3.5-4,.2-6.8-2.7-7.5-3.5"/>
</svg>