<?xml version="1.0" encoding="UTF-8"?>
<svg id="Layer_1" data-name="Layer 1" xmlns="http://www.w3.org/2000/svg" version="1.1" viewBox="0 0 50 50">
  <defs>
    <style>
      .cls-1, .cls-2, .cls-3 {
        stroke: #fff;
        stroke-miterlimit: 10;
      }

      .cls-1, .cls-3 {
        stroke-width: 4px;
      }

      .cls-1, .cls-4 {
        fill: #fff;
      }

      .cls-2 {
        stroke-width: 2px;
      }

      .cls-2, .cls-3 {
        fill: none;
      }

      .cls-4 {
        stroke-width: 0px;
      }
    </style>
  </defs>
  <g>
    <polygon class="cls-4" points="17.1 22.3 28.3 22.3 22.7 32 17.1 22.3"/>
    <path class="cls-4" d="M27.5,22.8l-4.7,8.2-4.7-8.2h9.4M29.2,21.8h-12.9l6.4,11.2,6.5-11.2h0Z"/>
  </g>
  <line class="cls-3" x1="22.7" y1="22.6" x2="22.7" y2="11.5"/>
  <line class="cls-3" x1="38.6" y1="6.1" x2="28.1" y2="6.1"/>
  <path class="cls-1" d="M22.7,12c0-4,2-5.9,6-5.9"/>
  <path class="cls-2" d="M16.3,39.4c-.8.9-3.1,3.3-6.6,3.5-4,.2-6.8-2.7-7.4-3.5"/>
  <line class="cls-2" x1="46" y1="32.4" x2="42.1" y2="50"/>
  <path class="cls-2" d="M16,39.7c.8-.9,3.1-3.3,6.6-3.5,4-.2,6.8,2.7,7.5,3.5"/>
  <path class="cls-2" d="M44.1,39.7c-.8.9-3.1,3.3-6.6,3.5-4,.2-6.8-2.7-7.5-3.5"/>
</svg>