<?xml version="1.0" encoding="UTF-8" standalone="no"?>
<!DOCTYPE svg PUBLIC "-//W3C//DTD SVG 1.1//EN" "http://www.w3.org/Graphics/SVG/1.1/DTD/svg11.dtd">
<svg height="100%" stroke-miterlimit="10" style="fill-rule:nonzero;clip-rule:evenodd;stroke-linecap:round;stroke-linejoin:round;" version="1.1" viewBox="0 0 1024 465" width="100%" xml:space="preserve" xmlns="http://www.w3.org/2000/svg" xmlns:vectornator="http://vectornator.io" xmlns:xlink="http://www.w3.org/1999/xlink">
<g id="Layer-2" vectornator:layerName="Layer 2">
<g opacity="1" vectornator:layerName="Group 1">
<path d="M67.7667 20C67.7667 20 128.961 94.8366 155.994 99.4719C276.22 120.087 388.681 115.607 510.65 117.271C627.159 118.86 936.914 98.7656 960.535 90.6862C970.298 87.3471 991.883 52.829 1005.07 31.872C928.505 40.9984 852.33 54.3436 775.383 59.2513C703.7 63.8234 639.118 66.9455 567.476 61.7624C533.336 59.2925 508.783 41.2921 455.633 44.1044C402.482 46.9168 254.345 43.7534 249.683 43.5167C188.264 40.3976 67.7667 20 67.7667 20Z" fill="none" opacity="1" stroke="#1b1e43" stroke-linecap="butt" stroke-linejoin="round" stroke-width="16" vectornator:layerName="Curve 1"/>
<path d="M21.3838 385.992C18.8901 380.939 17.3092 332.064 21.6697 303.803C26.0302 275.541 44.787 260.828 99.3893 242.546C153.991 224.263 234.61 221.203 234.61 221.203C234.61 221.203 376.157 157.902 417.801 145.581C459.446 133.26 450.45 133.232 538.12 132.623C625.791 132.015 685.617 137.444 768.483 143.147C851.349 148.849 867.876 153.059 870.611 156.742C873.346 160.424 862.693 161.285 879.942 177.835C897.19 194.385 931.631 207.801 938.579 221.633C945.527 235.466 934.842 241.418 936.603 259.367C938.364 277.316 939.313 280.891 945.623 293.43C951.932 305.968 960.61 302.975 961.577 322.796C962.544 342.617 960.923 369.926 933.496 380.13C906.069 390.334 857.736 396.023 857.736 396.023C857.736 396.023 857.623 393.948 857.706 361.843C857.789 329.737 827.934 284.125 772.691 282.565C717.447 281.006 684.927 327.809 685.392 356.91C685.857 386.011 686.07 396.619 686.07 396.619L251.29 409.094C251.29 409.094 252.466 391.648 251.561 361.492C250.11 313.168 207.429 282.125 159.603 284.495C110.981 286.904 78.8962 323.39 80.5319 370.265C81.4585 396.817 82.064 408.844 82.064 408.844C82.064 408.844 75.1419 411.502 60.5888 406.528C46.0356 401.555 23.8776 391.045 21.3838 385.992Z" fill="none" opacity="1" stroke="#1b1e43" stroke-linecap="butt" stroke-linejoin="round" stroke-width="16" vectornator:layerName="Curve 2"/>
<path d="M93.3486 371.47C93.3486 331.126 126.054 298.421 166.398 298.421C206.742 298.421 239.447 331.126 239.447 371.47C239.447 411.814 206.742 444.519 166.398 444.519C126.054 444.519 93.3486 411.814 93.3486 371.47Z" fill="none" opacity="1" stroke="#1b1e43" stroke-linecap="butt" stroke-linejoin="round" stroke-width="16" vectornator:layerName="Oval 1"/>
<path d="M699.087 370.64C699.087 330.296 731.793 297.591 772.137 297.591C812.481 297.591 845.186 330.296 845.186 370.64C845.186 410.984 812.481 443.689 772.137 443.689C731.793 443.689 699.087 410.984 699.087 370.64Z" fill="none" opacity="1" stroke="#1b1e43" stroke-linecap="butt" stroke-linejoin="round" stroke-width="16" vectornator:layerName="Oval 2"/>
</g>
</g>
</svg>
