<?xml version="1.0" encoding="utf-8"?>
<!-- Generator: Adobe Illustrator 27.3.1, SVG Export Plug-In . SVG Version: 6.00 Build 0)  -->
<svg version="1.1" id="Ebene_1" xmlns="http://www.w3.org/2000/svg" xmlns:xlink="http://www.w3.org/1999/xlink" x="0px" y="0px"
	 viewBox="0 0 138 104" style="enable-background:new 0 0 138 104;" xml:space="preserve">
<style type="text/css">
	.st0{fill:#1b1e43;}
</style>
<g>
	<path class="st0" d="M12.4,40.6c2.8,0,5.8,1.3,9.5,3.4c0.5-2.1,1.1-4.6,1.6-6.6c0,0-5-3.4-11.8-3.4c-6-0.1-11,3.6-10.7,9.7
		c0.3,4.7,3.3,6.5,7.6,8.3c3.9,1.6,8.1,2.3,8.1,4.1c0,2.1-2.7,2.6-5.8,2.3c-2.4-0.3-5-0.7-7.3-1.6c-0.8,2.3-1.6,5.2-2.5,7.4
		c4.2,1.3,8.2,2,13.1,2c6.2,0,11.2-3.5,11-9.7c-0.2-6.2-5.1-8.3-10.8-10.4c-3.1-1.2-5.3-1.9-5.4-3.4C9.1,41.3,10.2,40.6,12.4,40.6z"
		/>
	<path class="st0" d="M95.8,55.2c-2.7-0.2-5.2-1.1-5.2-1.1
		c-0.8,1.9-1.8,4.4-2.7,6.3c3.6,0.8,7.1,1.3,10.7,1.2c5.6-0.3,11.4-3.3,11.4-9.5c0.3-5.3-5.6-6.9-9.5-7.9c-2.7-0.7-3.7-1.2-3.7-2.4
		c0-1.2,0.9-1.9,2-2.1c2.8-0.6,6.4,0.9,9,1.7c0.7-2.1,1.3-4,2-6c-2.4-0.6-6.3-2.2-10.6-1.6c-4.6,0.7-9,4.6-9.4,9.4
		c-0.3,3.5,2.9,5.6,5.8,6.6c1.6,0.6,5.6,1.6,5.6,3.6C101.2,55.2,98.5,55.4,95.8,55.2z"/>
	<path class="st0" d="M123.1,52.9c-2-0.1-4.5-0.7-6.4-1.3
		c-0.9,2.1-1.7,4.2-2.5,6.3c3.6,1.5,7.4,1.8,11.3,1.7c5.7-0.3,11-3.2,11.3-9.4c0.5-5.3-4.6-7.4-8.7-8.8c-2.8-1-3.7-1.3-4.1-2.5
		c-0.2-0.9,0.6-1.9,1.9-2.1c3-0.5,6.7,1.4,9.5,2.8c0.7-2,1.2-4.3,1.7-6.3c-2.8-0.9-6.8-2.8-10.3-2.7c-5.1,0.2-11.2,3.1-11.4,8.8
		c-0.1,4.2,3.2,6.3,6.7,7.8c3.4,1.5,6.7,1.9,6.5,4C128.4,53.2,124.9,53,123.1,52.9z"/>
	<path class="st0" d="M46.2,64.9c1.3-8.9,2.8-9.3,3.2-15.9
		c2,5,4.4,10,6.1,15.1c2.6-0.2,5.3-0.4,7.9-0.6c1.9-8.4,4.9-16.3,7.3-24.4c-4,0.3-6.1,0.6-8.6,0.6c-1.4,5-2.5,9.4-3.6,14.6
		c-1.8-5.2-4.2-10-5.9-15.2c-1.5-0.2-5.1-1.1-7.6-1c-1,10.9-2.4,10.8-3.4,16.3c-1.9-5.9-3.9-11.7-5.5-17.6c-2.8-0.4-5.7-0.9-8.5-1.3
		c3.3,10,7.2,19.8,10.1,29.9C40.5,65.2,43.4,65.1,46.2,64.9z"/>
	<path class="st0" d="M83,61.9c0.4-8.2-0.5-13.7,0.9-24.5
		c-2.7,0.4-5.5,0.8-8.2,1.1c-0.1,8,0.6,12.6-0.3,24C78,62.3,80.5,62.1,83,61.9z"/>
	<path class="st0" d="M16.4,96c-4.8-0.2-6.5-4.2-6.6-8.6
		c-0.1-5.2,2.6-9.1,7.1-9.5c3.7-0.3,7.7,1.5,7.6,1.6c0.4-2.4,0.9-4.9,1.3-7.3c-0.7-0.2-5.2-1.6-9.2-1.5C6.8,71.1,0.3,77.2,0,87.5
		c-0.3,10.1,6.3,16.8,16,16.5c6.6-0.2,10.1-2.4,10.2-2.4c-0.8-2.4-1.6-5-2.4-7.3C23.2,94.5,19.8,96.1,16.4,96z"/>
	<path class="st0" d="M37.9,71.1c-1.9,10.2-5.5,19.5-8.4,31.6
		c2.9-0.3,6-0.7,9.1-1.2c0.3-1.5,0.6-2.9,0.9-4.4c3-0.4,5.9-0.9,8.8-1.3c0.4,1.3,0.9,2.7,1.3,4c2.9-0.5,5.7-1.1,8.5-1.7
		c-5.4-9.9-6.9-18.6-10.9-27.4C44.5,71,40.6,71.1,37.9,71.1z M40.8,90.2c0.6-3.1,1.9-8.1,2.5-12.7c1.2,4.5,1.7,8.4,2.8,11.9
		C44.3,89.7,42.6,90,40.8,90.2z"/>
	<path class="st0" d="M75.7,67.9c0.1,6.7,1.3,10.2,1.7,15.1
		c-3.4-3.7-6.5-9.3-10.6-14.2c-2.4,0.3-5.2,0.7-7.7,0.9c1.4,8.8,2.4,18.3,2.2,27.7c2.5-0.6,5.3-1.3,7.6-1.9c-0.4-5.6-1-9.7-1.8-14.9
		c3.6,5,7,8.8,10.8,12.6c2.1-0.5,4.9-0.9,7.1-1.3c-0.9-7.1-1.3-16.4-1.8-24.6C80.9,67.4,78,67.7,75.7,67.9z"/>
	<path class="st0" d="M100.4,65.6c-8.3,0.4-12.8,3.8-12.5,13.8
		c0.2,8.8,6.4,12,13.8,11.4c7.5-0.5,13.6-5.5,13-13.4C114.2,69.6,108,65.2,100.4,65.6z M101.5,85.4c-4,0.1-5.7-2.6-5.8-6.6
		c-0.1-4.3,1.5-7.4,5-7.5c3.8-0.2,5.7,3.3,5.9,6.8C106.8,81.1,105.5,85.2,101.5,85.4z"/>
	<path class="st0" d="M137.4,82.8c-3.3,0.1-6.8,0.1-10.4,0.1
		c-0.1-1.6-0.2-2.4-0.4-4c2.9-0.1,6.3-0.1,9.2-0.3c-0.1-2.1-0.2-3.1-0.3-5.2c-3,0.1-5.9,0.3-9.2,0.3c-0.1-1.4-0.1-2.1-0.1-3.5
		c3.3-0.2,6.9-0.4,10.2-0.6c0-2-0.1-4,0-6.1c-6,0.3-12,0.8-18,1.2c0.1,8.1,0.6,15.7,1.5,23.7c6-0.2,12.2,0.3,18.1,0.1
		C137.8,86.7,137.6,84.7,137.4,82.8z"/>
	<path class="st0" d="M9.3,21.1c2.2,0,4.5,0.2,6.8,0.4
		c0-2,0.2-5.2,0.2-7.2c2.3,0.2,4.9,0.6,7.2,1c0-1.8,0.1-4.5,0.3-6.3c-2.2-0.4-4.7-0.9-7.1-1.2c0.1-1.9,0.2-5.1,0.4-7
		c-2.1-0.3-4.6-0.5-6.8-0.6C10,2,9.8,5.2,9.7,7.2c-2.3-0.1-5.1,0-7.2,0.3c-0.1,2-0.2,4.4-0.3,6.5c2.3-0.2,4.9-0.3,7.3-0.2
		C9.4,15.8,9.3,19,9.3,21.1z"/>
</g>
</svg>
