<?xml version="1.0" encoding="UTF-8" standalone="no"?>
<!DOCTYPE svg PUBLIC "-//W3C//DTD SVG 1.1//EN" "http://www.w3.org/Graphics/SVG/1.1/DTD/svg11.dtd">
<svg height="100%" stroke-miterlimit="10" style="fill-rule:nonzero;clip-rule:evenodd;stroke-linecap:round;stroke-linejoin:round;" version="1.1" viewBox="0 0 1024 1024" width="100%" xml:space="preserve" xmlns="http://www.w3.org/2000/svg" xmlns:vectornator="http://vectornator.io" xmlns:xlink="http://www.w3.org/1999/xlink">
<g id="Layer-1" vectornator:layerName="Layer 1">
<path d="M117.624 958.056C132.095 895.76 172.291 688.323 283.517 523.968C398.677 353.798 611.244 212.617 719.752 151.931C667.896 197.448 456.113 329.506 336.033 548.179C247.622 709.182 196.709 929.678 191.672 966.147C278.396 956.25 352.014 936.523 425.303 901.591C620.828 808.399 671.879 672.304 686.361 625.667C727.759 492.353 717.702 342.433 779.913 217.468C815.047 146.892 880.896 93.7268 963.689 68.5875C803.562 86.165 637.34 74.1611 483.309 121.32C373.895 154.819 273.815 223.521 193.011 304.542C124.725 373.012 59.3607 496.479 43.0013 592.28C20.1476 726.111 38.8431 885.229 117.624 958.056Z" fill="#07753f" fill-rule="nonzero" opacity="1" stroke="#07753f" stroke-linecap="butt" stroke-linejoin="round" stroke-width="1" vectornator:layerName="Curve 1"/>
</g>
</svg>
